<?xml version="1.0" encoding="UTF-8"?>
<svg width="32" height="32" viewBox="0 0 32 32" fill="none" xmlns="http://www.w3.org/2000/svg">
  <!-- Background Circle -->
  <circle cx="16" cy="16" r="15" fill="#7C3AED" />
  <circle cx="16" cy="16" r="13.5" fill="#8B5CF6" />
  
  <!-- Dog Face -->
  <ellipse cx="16" cy="16" rx="10" ry="9" fill="#F3E8FF" />
  
  <!-- Ears -->
  <path d="M7.5 11C6.5 8.5 6 6 6.5 5C10 6 10.5 10 10.5 11" fill="#7C3AED" />
  <path d="M24.5 11C25.5 8.5 26 6 25.5 5C22 6 21.5 10 21.5 11" fill="#7C3AED" />
  
  <!-- Eyes -->
  <circle cx="12.5" cy="14" r="1.5" fill="#1F2937" />
  <circle cx="19.5" cy="14" r="1.5" fill="#1F2937" />
  
  <!-- Nose -->
  <ellipse cx="16" cy="17.5" rx="2" ry="1.5" fill="#1F2937" />
  
  <!-- Mouth -->
  <path d="M16 17.5C16 17.5 12.5 20 11.5 21C11.5 22 14 23 16 23C18 23 20.5 22 20.5 21C19.5 20 16 17.5 16 17.5Z" fill="#7C3AED" />
  
  <!-- Cocktail Glass (simplified) -->
  <path d="M22 9L24 14H20L22 9Z" fill="#A5F3FC" stroke="#0EA5E9" stroke-width="0.5" />
</svg> 