<?xml version="1.0" encoding="UTF-8"?>
<svg width="512" height="512" viewBox="0 0 512 512" fill="none" xmlns="http://www.w3.org/2000/svg">
  <!-- Background Circle -->
  <circle cx="256" cy="256" r="240" fill="#7C3AED" />
  <circle cx="256" cy="256" r="220" fill="#8B5CF6" />
  
  <!-- Dog Face -->
  <ellipse cx="256" cy="256" rx="160" ry="150" fill="#F3E8FF" />
  
  <!-- Ears -->
  <path d="M120 180C100 140 90 100 100 80C160 100 170 160 170 180" fill="#7C3AED" />
  <path d="M392 180C412 140 422 100 412 80C352 100 342 160 342 180" fill="#7C3AED" />
  
  <!-- Eyes -->
  <circle cx="200" cy="230" r="25" fill="#1F2937" />
  <circle cx="312" cy="230" r="25" fill="#1F2937" />
  
  <!-- Eye Highlights -->
  <circle cx="190" cy="220" r="8" fill="white" />
  <circle cx="302" cy="220" r="8" fill="white" />
  
  <!-- Nose -->
  <ellipse cx="256" cy="280" rx="30" ry="20" fill="#1F2937" />
  
  <!-- Mouth -->
  <path d="M256 280C256 280 200 320 180 340C180 360 220 370 256 370C292 370 332 360 332 340C312 320 256 280 256 280Z" fill="#7C3AED" />
  <path d="M180 340C180 340 220 350 256 350C292 350 332 340 332 340" stroke="#F3E8FF" stroke-width="5" />
  
  <!-- Tongue -->
  <ellipse cx="256" cy="350" rx="20" ry="10" fill="#EC4899" />
  
  <!-- Cocktail Glass -->
  <path d="M350 150L380 220H320L350 150Z" fill="#A5F3FC" stroke="#0EA5E9" stroke-width="5" />
  <rect x="345" y="220" width="10" height="40" fill="#0EA5E9" />
  <ellipse cx="350" cy="260" rx="20" ry="5" fill="#0EA5E9" />
  
  <!-- Cocktail Garnish -->
  <circle cx="350" cy="180" r="10" fill="#F87171" />
  <path d="M350 170L355 160H345L350 170Z" fill="#15803D" />
  
  <!-- Cocktail Straw -->
  <path d="M330 150L340 220" stroke="#F87171" stroke-width="5" />
  
  <!-- Dog Tag -->
  <circle cx="256" cy="320" r="15" fill="#F59E0B" />
  <text x="256" y="325" text-anchor="middle" font-family="Arial" font-weight="bold" font-size="16" fill="white">BH</text>
</svg> 